<svg width="1440" height="99" viewBox="0 0 1440 99" fill="none" xmlns="http://www.w3.org/2000/svg">
<path opacity="0.1" d="M-20 22.5678C6.68338 5.09204 31.7873 -2.67676 63.2844 4.5918C99.863 13.033 130.941 38.7833 162.734 57.4205C190.163 73.4993 221.786 84.6577 253.002 90.3333C287.583 96.6208 329.467 99.9128 363.574 88.9108C394.911 78.8019 420.161 60.0405 449.962 47.2686C548.101 5.20901 572.234 75.8612 654.5 92.9998C690.614 100.523 734.643 50.9995 785.5 57.5C852 66 890 96 937 87.5C1001.72 75.795 1049.23 17.3324 1126 27.5C1183.57 35.1247 1203.77 76.6875 1259.5 92.9998C1333.64 114.699 1441.44 45.9358 1459.5 64" stroke="black" stroke-width="2" stroke-linecap="round" stroke-dasharray="10 10"/>
</svg>
